<mxfile host="app.diagrams.net" agent="Mozilla/5.0 (Windows NT 10.0; Win64; x64) AppleWebKit/537.36 (KHTML, like Gecko) Chrome/132.0.0.0 YaBrowser/25.2.0.0 Safari/537.36" version="26.1.0" pages="4">
  <diagram name="Страница — 1" id="_sjsYOioFBarJbZ59SGE">
    <mxGraphModel dx="1002" dy="575" grid="1" gridSize="10" guides="1" tooltips="1" connect="1" arrows="1" fold="1" page="1" pageScale="1" pageWidth="827" pageHeight="1169" math="0" shadow="0">
      <root>
        <mxCell id="0" />
        <mxCell id="1" parent="0" />
        <mxCell id="UvDcd2PNRc7gyPkCGQ70-1" value="" style="rounded=0;whiteSpace=wrap;html=1;" parent="1" vertex="1">
          <mxGeometry x="350" y="270" width="120" height="60" as="geometry" />
        </mxCell>
        <mxCell id="UvDcd2PNRc7gyPkCGQ70-2" value="Фильтр" style="text;html=1;align=center;verticalAlign=middle;whiteSpace=wrap;rounded=0;" parent="1" vertex="1">
          <mxGeometry x="380" y="280" width="60" height="30" as="geometry" />
        </mxCell>
        <mxCell id="UvDcd2PNRc7gyPkCGQ70-3" value="А3" style="text;html=1;align=center;verticalAlign=middle;whiteSpace=wrap;rounded=0;" parent="1" vertex="1">
          <mxGeometry x="420" y="310" width="60" height="20" as="geometry" />
        </mxCell>
        <mxCell id="UvDcd2PNRc7gyPkCGQ70-4" value="" style="endArrow=classic;html=1;rounded=0;entryX=0;entryY=0.5;entryDx=0;entryDy=0;" parent="1" target="UvDcd2PNRc7gyPkCGQ70-1" edge="1">
          <mxGeometry width="50" height="50" relative="1" as="geometry">
            <mxPoint x="160" y="300" as="sourcePoint" />
            <mxPoint x="470" y="280" as="targetPoint" />
          </mxGeometry>
        </mxCell>
        <mxCell id="UvDcd2PNRc7gyPkCGQ70-5" value="Набор пар &amp;lt;коммуникативная цель; вес&amp;gt;" style="text;html=1;align=center;verticalAlign=middle;whiteSpace=wrap;rounded=0;" parent="1" vertex="1">
          <mxGeometry x="170" y="260" width="160" height="30" as="geometry" />
        </mxCell>
        <mxCell id="UvDcd2PNRc7gyPkCGQ70-6" value="" style="endArrow=classic;html=1;rounded=0;entryX=0.428;entryY=0.015;entryDx=0;entryDy=0;entryPerimeter=0;" parent="1" target="UvDcd2PNRc7gyPkCGQ70-1" edge="1">
          <mxGeometry width="50" height="50" relative="1" as="geometry">
            <mxPoint x="400" y="200" as="sourcePoint" />
            <mxPoint x="470" y="280" as="targetPoint" />
          </mxGeometry>
        </mxCell>
        <mxCell id="UvDcd2PNRc7gyPkCGQ70-7" value="" style="endArrow=classic;html=1;rounded=0;exitX=1;exitY=0.25;exitDx=0;exitDy=0;" parent="1" source="UvDcd2PNRc7gyPkCGQ70-1" edge="1">
          <mxGeometry width="50" height="50" relative="1" as="geometry">
            <mxPoint x="500" y="300" as="sourcePoint" />
            <mxPoint x="640" y="285" as="targetPoint" />
          </mxGeometry>
        </mxCell>
        <mxCell id="UvDcd2PNRc7gyPkCGQ70-9" value="Модельный темперамент" style="text;html=1;align=center;verticalAlign=middle;whiteSpace=wrap;rounded=0;" parent="1" vertex="1">
          <mxGeometry x="410" y="220" width="60" height="30" as="geometry" />
        </mxCell>
        <mxCell id="jUcdVenNphiVe4H3FIww-1" value="" style="endArrow=classic;html=1;rounded=0;exitX=1;exitY=0.5;exitDx=0;exitDy=0;entryX=0;entryY=0.75;entryDx=0;entryDy=0;" edge="1" parent="1">
          <mxGeometry width="50" height="50" relative="1" as="geometry">
            <mxPoint x="470" y="300" as="sourcePoint" />
            <mxPoint x="350" y="315" as="targetPoint" />
            <Array as="points">
              <mxPoint x="500" y="300" />
              <mxPoint x="500" y="365" />
              <mxPoint x="330" y="365" />
              <mxPoint x="330" y="315" />
            </Array>
          </mxGeometry>
        </mxCell>
        <mxCell id="NmvlCr0SLhsKHNiOPNoG-1" value="&lt;span style=&quot;color: rgb(0, 0, 0); font-family: Helvetica; font-size: 12px; font-style: normal; font-variant-ligatures: normal; font-variant-caps: normal; font-weight: 400; letter-spacing: normal; orphans: 2; text-align: center; text-indent: 0px; text-transform: none; widows: 2; word-spacing: 0px; -webkit-text-stroke-width: 0px; white-space: normal; background-color: rgb(251, 251, 251); text-decoration-thickness: initial; text-decoration-style: initial; text-decoration-color: initial; display: inline !important; float: none;&quot;&gt;Перевзвешенные коммуникативные цели&lt;/span&gt;" style="text;whiteSpace=wrap;html=1;" vertex="1" parent="1">
          <mxGeometry x="300" y="370" width="270" height="40" as="geometry" />
        </mxCell>
        <mxCell id="RYKhK4Z21-OiZsGSSdtu-1" value="&lt;span style=&quot;color: rgb(0, 0, 0); font-family: Helvetica; font-size: 12px; font-style: normal; font-variant-ligatures: normal; font-variant-caps: normal; font-weight: 400; letter-spacing: normal; orphans: 2; text-align: center; text-indent: 0px; text-transform: none; widows: 2; word-spacing: 0px; -webkit-text-stroke-width: 0px; white-space: normal; background-color: rgb(251, 251, 251); text-decoration-thickness: initial; text-decoration-style: initial; text-decoration-color: initial; display: inline !important; float: none;&quot;&gt;КЦ, выбранная для реализации&lt;/span&gt;" style="text;whiteSpace=wrap;html=1;" vertex="1" parent="1">
          <mxGeometry x="490" y="255" width="210" height="40" as="geometry" />
        </mxCell>
      </root>
    </mxGraphModel>
  </diagram>
  <diagram id="VvptTJ7YSRnSmnFxt8S8" name="Страница — 2">
    <mxGraphModel dx="1940" dy="639" grid="1" gridSize="10" guides="1" tooltips="1" connect="1" arrows="1" fold="1" page="1" pageScale="1" pageWidth="827" pageHeight="1169" math="0" shadow="0">
      <root>
        <mxCell id="0" />
        <mxCell id="1" parent="0" />
        <mxCell id="5S0u88_h4x55lSA8AxHL-1" value="" style="rounded=0;whiteSpace=wrap;html=1;" vertex="1" parent="1">
          <mxGeometry x="400" y="340" width="120" height="60" as="geometry" />
        </mxCell>
        <mxCell id="5S0u88_h4x55lSA8AxHL-2" value="" style="rounded=0;whiteSpace=wrap;html=1;" vertex="1" parent="1">
          <mxGeometry x="706" y="540" width="120" height="60" as="geometry" />
        </mxCell>
        <mxCell id="5S0u88_h4x55lSA8AxHL-3" value="" style="rounded=0;whiteSpace=wrap;html=1;" vertex="1" parent="1">
          <mxGeometry x="560" y="440" width="120" height="60" as="geometry" />
        </mxCell>
        <mxCell id="5S0u88_h4x55lSA8AxHL-4" value="" style="rounded=0;whiteSpace=wrap;html=1;" vertex="1" parent="1">
          <mxGeometry x="246" y="240" width="120" height="60" as="geometry" />
        </mxCell>
        <mxCell id="5S0u88_h4x55lSA8AxHL-5" value="" style="rounded=0;whiteSpace=wrap;html=1;" vertex="1" parent="1">
          <mxGeometry x="96" y="160" width="120" height="60" as="geometry" />
        </mxCell>
        <mxCell id="5S0u88_h4x55lSA8AxHL-6" value="" style="endArrow=classic;html=1;rounded=0;entryX=0;entryY=0.5;entryDx=0;entryDy=0;" edge="1" parent="1" target="5S0u88_h4x55lSA8AxHL-5">
          <mxGeometry width="50" height="50" relative="1" as="geometry">
            <mxPoint x="6" y="190" as="sourcePoint" />
            <mxPoint x="456" y="340" as="targetPoint" />
          </mxGeometry>
        </mxCell>
        <mxCell id="5S0u88_h4x55lSA8AxHL-7" value="Текст&lt;div&gt;(предложение)&lt;/div&gt;" style="text;html=1;align=center;verticalAlign=middle;whiteSpace=wrap;rounded=0;" vertex="1" parent="1">
          <mxGeometry x="-17" y="139" width="130" height="60" as="geometry" />
        </mxCell>
        <mxCell id="5S0u88_h4x55lSA8AxHL-8" value="Синтактико-семантический анализатор" style="text;html=1;align=center;verticalAlign=middle;whiteSpace=wrap;rounded=0;" vertex="1" parent="1">
          <mxGeometry x="116" y="172.5" width="80" height="35" as="geometry" />
        </mxCell>
        <mxCell id="5S0u88_h4x55lSA8AxHL-9" value="" style="endArrow=classic;html=1;rounded=0;exitX=1;exitY=0.5;exitDx=0;exitDy=0;entryX=0;entryY=0.5;entryDx=0;entryDy=0;" edge="1" parent="1" source="5S0u88_h4x55lSA8AxHL-5" target="5S0u88_h4x55lSA8AxHL-4">
          <mxGeometry width="50" height="50" relative="1" as="geometry">
            <mxPoint x="390" y="390" as="sourcePoint" />
            <mxPoint x="440" y="340" as="targetPoint" />
            <Array as="points">
              <mxPoint x="230" y="190" />
              <mxPoint x="230" y="270" />
            </Array>
          </mxGeometry>
        </mxCell>
        <mxCell id="5S0u88_h4x55lSA8AxHL-10" value="Внутреннее представление смысла текста" style="text;html=1;align=center;verticalAlign=middle;whiteSpace=wrap;rounded=0;" vertex="1" parent="1">
          <mxGeometry x="238" y="189" width="80" height="30" as="geometry" />
        </mxCell>
        <mxCell id="5S0u88_h4x55lSA8AxHL-11" value="Формирование коммуникативных целей ответа" style="text;html=1;align=center;verticalAlign=middle;whiteSpace=wrap;rounded=0;" vertex="1" parent="1">
          <mxGeometry x="256" y="250" width="100" height="40" as="geometry" />
        </mxCell>
        <mxCell id="5S0u88_h4x55lSA8AxHL-12" value="А1" style="text;html=1;align=center;verticalAlign=middle;whiteSpace=wrap;rounded=0;" vertex="1" parent="1">
          <mxGeometry x="186" y="200" width="30" height="20" as="geometry" />
        </mxCell>
        <mxCell id="5S0u88_h4x55lSA8AxHL-13" value="А2" style="text;html=1;align=center;verticalAlign=middle;whiteSpace=wrap;rounded=0;" vertex="1" parent="1">
          <mxGeometry x="336" y="280" width="30" height="20" as="geometry" />
        </mxCell>
        <mxCell id="5S0u88_h4x55lSA8AxHL-14" value="" style="endArrow=classic;html=1;rounded=0;exitX=1;exitY=0.5;exitDx=0;exitDy=0;" edge="1" parent="1" source="5S0u88_h4x55lSA8AxHL-4">
          <mxGeometry width="50" height="50" relative="1" as="geometry">
            <mxPoint x="350" y="380" as="sourcePoint" />
            <mxPoint x="400" y="360" as="targetPoint" />
            <Array as="points">
              <mxPoint x="380" y="270" />
              <mxPoint x="380" y="360" />
            </Array>
          </mxGeometry>
        </mxCell>
        <mxCell id="5S0u88_h4x55lSA8AxHL-15" value="Н&lt;span style=&quot;background-color: initial;&quot;&gt;абор взвешенных коммуникативных целей&lt;/span&gt;" style="text;html=1;align=center;verticalAlign=middle;whiteSpace=wrap;rounded=0;" vertex="1" parent="1">
          <mxGeometry x="390" y="240" width="60" height="30" as="geometry" />
        </mxCell>
        <mxCell id="5S0u88_h4x55lSA8AxHL-16" value="" style="endArrow=classic;html=1;rounded=0;entryX=0.661;entryY=-0.004;entryDx=0;entryDy=0;entryPerimeter=0;" edge="1" parent="1" target="5S0u88_h4x55lSA8AxHL-1">
          <mxGeometry width="50" height="50" relative="1" as="geometry">
            <mxPoint x="480" y="280" as="sourcePoint" />
            <mxPoint x="400" y="330" as="targetPoint" />
          </mxGeometry>
        </mxCell>
        <mxCell id="5S0u88_h4x55lSA8AxHL-17" value="Модельный темперамент" style="text;html=1;align=center;verticalAlign=middle;whiteSpace=wrap;rounded=0;" vertex="1" parent="1">
          <mxGeometry x="490" y="280" width="60" height="30" as="geometry" />
        </mxCell>
        <mxCell id="5S0u88_h4x55lSA8AxHL-18" value="Фильтр коммуникативных целей" style="text;html=1;align=center;verticalAlign=middle;whiteSpace=wrap;rounded=0;" vertex="1" parent="1">
          <mxGeometry x="430" y="355" width="60" height="30" as="geometry" />
        </mxCell>
        <mxCell id="5S0u88_h4x55lSA8AxHL-19" value="Перевзвешенные коммуникативные цели" style="text;html=1;align=center;verticalAlign=middle;whiteSpace=wrap;rounded=0;" vertex="1" parent="1">
          <mxGeometry x="635" y="320" width="60" height="30" as="geometry" />
        </mxCell>
        <mxCell id="5S0u88_h4x55lSA8AxHL-21" value="" style="endArrow=classic;html=1;rounded=0;exitX=1;exitY=0;exitDx=0;exitDy=0;entryX=0;entryY=0.667;entryDx=0;entryDy=0;entryPerimeter=0;" edge="1" parent="1" source="5S0u88_h4x55lSA8AxHL-23" target="5S0u88_h4x55lSA8AxHL-1">
          <mxGeometry width="50" height="50" relative="1" as="geometry">
            <mxPoint x="350" y="380" as="sourcePoint" />
            <mxPoint x="400" y="330" as="targetPoint" />
            <Array as="points">
              <mxPoint x="540" y="380" />
              <mxPoint x="540" y="430" />
              <mxPoint x="380" y="430" />
              <mxPoint x="380" y="380" />
            </Array>
          </mxGeometry>
        </mxCell>
        <mxCell id="5S0u88_h4x55lSA8AxHL-23" value="А3" style="text;html=1;align=center;verticalAlign=middle;whiteSpace=wrap;rounded=0;" vertex="1" parent="1">
          <mxGeometry x="490" y="380" width="30" height="20" as="geometry" />
        </mxCell>
        <mxCell id="5S0u88_h4x55lSA8AxHL-24" value="Выбор средств реализации данной КЦ" style="text;html=1;align=center;verticalAlign=middle;whiteSpace=wrap;rounded=0;" vertex="1" parent="1">
          <mxGeometry x="580" y="450" width="80" height="40" as="geometry" />
        </mxCell>
        <mxCell id="5S0u88_h4x55lSA8AxHL-25" value="А4" style="text;html=1;align=center;verticalAlign=middle;whiteSpace=wrap;rounded=0;" vertex="1" parent="1">
          <mxGeometry x="650" y="480" width="30" height="20" as="geometry" />
        </mxCell>
        <mxCell id="5S0u88_h4x55lSA8AxHL-26" value="" style="endArrow=classic;html=1;rounded=0;exitX=1;exitY=0.5;exitDx=0;exitDy=0;entryX=0;entryY=0.5;entryDx=0;entryDy=0;" edge="1" parent="1" source="5S0u88_h4x55lSA8AxHL-3" target="5S0u88_h4x55lSA8AxHL-2">
          <mxGeometry width="50" height="50" relative="1" as="geometry">
            <mxPoint x="710" y="500" as="sourcePoint" />
            <mxPoint x="760" y="450" as="targetPoint" />
            <Array as="points">
              <mxPoint x="690" y="470" />
              <mxPoint x="690" y="570" />
            </Array>
          </mxGeometry>
        </mxCell>
        <mxCell id="5S0u88_h4x55lSA8AxHL-27" value="Реакция в формате BML" style="text;html=1;align=center;verticalAlign=middle;whiteSpace=wrap;rounded=0;" vertex="1" parent="1">
          <mxGeometry x="690" y="437" width="80" height="30" as="geometry" />
        </mxCell>
        <mxCell id="5S0u88_h4x55lSA8AxHL-28" value="Воспроизведение&lt;div&gt;реакции&lt;/div&gt;" style="text;html=1;align=center;verticalAlign=middle;whiteSpace=wrap;rounded=0;" vertex="1" parent="1">
          <mxGeometry x="726" y="545" width="80" height="40" as="geometry" />
        </mxCell>
        <mxCell id="5S0u88_h4x55lSA8AxHL-29" value="А5" style="text;html=1;align=center;verticalAlign=middle;whiteSpace=wrap;rounded=0;" vertex="1" parent="1">
          <mxGeometry x="796" y="580" width="30" height="20" as="geometry" />
        </mxCell>
        <mxCell id="5S0u88_h4x55lSA8AxHL-30" value="" style="endArrow=classic;html=1;rounded=0;exitX=1;exitY=0.5;exitDx=0;exitDy=0;" edge="1" parent="1" source="5S0u88_h4x55lSA8AxHL-2">
          <mxGeometry width="50" height="50" relative="1" as="geometry">
            <mxPoint x="736" y="550" as="sourcePoint" />
            <mxPoint x="896" y="570" as="targetPoint" />
          </mxGeometry>
        </mxCell>
        <mxCell id="5S0u88_h4x55lSA8AxHL-31" value="Воспроизве-денная&lt;div&gt;реакция&lt;/div&gt;" style="text;html=1;align=center;verticalAlign=middle;whiteSpace=wrap;rounded=0;" vertex="1" parent="1">
          <mxGeometry x="829" y="527" width="60" height="30" as="geometry" />
        </mxCell>
        <mxCell id="5S0u88_h4x55lSA8AxHL-32" value="" style="endArrow=none;dashed=1;html=1;rounded=0;" edge="1" parent="1">
          <mxGeometry width="50" height="50" relative="1" as="geometry">
            <mxPoint x="360" y="320" as="sourcePoint" />
            <mxPoint x="360" y="320" as="targetPoint" />
            <Array as="points">
              <mxPoint x="530" y="320" />
              <mxPoint x="530" y="440" />
              <mxPoint x="360" y="440" />
            </Array>
          </mxGeometry>
        </mxCell>
        <mxCell id="qFbvv3B5O4JQWZCJAVjp-2" value="" style="edgeStyle=isometricEdgeStyle;endArrow=none;html=1;rounded=0;strokeWidth=1;" edge="1" parent="1">
          <mxGeometry width="50" height="100" relative="1" as="geometry">
            <mxPoint x="540" y="392" as="sourcePoint" />
            <mxPoint x="610" y="340" as="targetPoint" />
          </mxGeometry>
        </mxCell>
        <mxCell id="qFbvv3B5O4JQWZCJAVjp-4" value="" style="endArrow=classic;html=1;rounded=0;exitX=0.999;exitY=0.374;exitDx=0;exitDy=0;entryX=-0.001;entryY=0.34;entryDx=0;entryDy=0;exitPerimeter=0;entryPerimeter=0;" edge="1" parent="1" source="5S0u88_h4x55lSA8AxHL-1" target="5S0u88_h4x55lSA8AxHL-3">
          <mxGeometry width="50" height="50" relative="1" as="geometry">
            <mxPoint x="525" y="354" as="sourcePoint" />
            <mxPoint x="565" y="454" as="targetPoint" />
            <Array as="points">
              <mxPoint x="545" y="362" />
              <mxPoint x="545" y="460" />
            </Array>
          </mxGeometry>
        </mxCell>
        <mxCell id="qFbvv3B5O4JQWZCJAVjp-5" value="КЦ, выбранная для реализации" style="text;html=1;align=center;verticalAlign=middle;whiteSpace=wrap;rounded=0;" vertex="1" parent="1">
          <mxGeometry x="545" y="398" width="105" height="30" as="geometry" />
        </mxCell>
        <mxCell id="qFbvv3B5O4JQWZCJAVjp-8" value="" style="endArrow=classic;html=1;rounded=0;entryX=0;entryY=0.5;entryDx=0;entryDy=0;" edge="1" parent="1">
          <mxGeometry width="50" height="50" relative="1" as="geometry">
            <mxPoint x="440" y="484" as="sourcePoint" />
            <mxPoint x="560" y="484" as="targetPoint" />
          </mxGeometry>
        </mxCell>
        <mxCell id="qFbvv3B5O4JQWZCJAVjp-9" value="Средства реализации КЦ" style="text;html=1;align=center;verticalAlign=middle;whiteSpace=wrap;rounded=0;" vertex="1" parent="1">
          <mxGeometry x="430" y="434" width="120" height="60" as="geometry" />
        </mxCell>
        <mxCell id="qFbvv3B5O4JQWZCJAVjp-12" value="" style="endArrow=classic;html=1;rounded=0;entryX=0.51;entryY=1.011;entryDx=0;entryDy=0;entryPerimeter=0;" edge="1" parent="1" target="5S0u88_h4x55lSA8AxHL-2">
          <mxGeometry width="50" height="50" relative="1" as="geometry">
            <mxPoint x="767" y="630" as="sourcePoint" />
            <mxPoint x="770" y="600" as="targetPoint" />
          </mxGeometry>
        </mxCell>
        <mxCell id="qFbvv3B5O4JQWZCJAVjp-13" value="Исполнительные органы робота" style="text;html=1;align=center;verticalAlign=middle;whiteSpace=wrap;rounded=0;" vertex="1" parent="1">
          <mxGeometry x="660" y="600" width="100" height="30" as="geometry" />
        </mxCell>
      </root>
    </mxGraphModel>
  </diagram>
  <diagram id="Ahox06fk3hwY9UOFRmUE" name="Страница — 3">
    <mxGraphModel dx="1829" dy="575" grid="1" gridSize="10" guides="1" tooltips="1" connect="1" arrows="1" fold="1" page="1" pageScale="1" pageWidth="827" pageHeight="1169" math="0" shadow="0">
      <root>
        <mxCell id="0" />
        <mxCell id="1" parent="0" />
        <mxCell id="xRFAZkwnYgBkl3SBLm2K-1" value="" style="rounded=0;whiteSpace=wrap;html=1;" parent="1" vertex="1">
          <mxGeometry x="400" y="340" width="120" height="60" as="geometry" />
        </mxCell>
        <mxCell id="xRFAZkwnYgBkl3SBLm2K-4" value="" style="rounded=0;whiteSpace=wrap;html=1;" parent="1" vertex="1">
          <mxGeometry x="240" y="240" width="120" height="60" as="geometry" />
        </mxCell>
        <mxCell id="xRFAZkwnYgBkl3SBLm2K-5" value="" style="rounded=0;whiteSpace=wrap;html=1;" parent="1" vertex="1">
          <mxGeometry x="80" y="160" width="120" height="60" as="geometry" />
        </mxCell>
        <mxCell id="xRFAZkwnYgBkl3SBLm2K-6" value="" style="endArrow=classic;html=1;rounded=0;entryX=0;entryY=0.5;entryDx=0;entryDy=0;" parent="1" target="xRFAZkwnYgBkl3SBLm2K-5" edge="1">
          <mxGeometry width="50" height="50" relative="1" as="geometry">
            <mxPoint x="-100" y="190" as="sourcePoint" />
            <mxPoint x="440" y="340" as="targetPoint" />
          </mxGeometry>
        </mxCell>
        <mxCell id="xRFAZkwnYgBkl3SBLm2K-8" value="проверка корректности входных данных" style="text;html=1;align=center;verticalAlign=middle;whiteSpace=wrap;rounded=0;" parent="1" vertex="1">
          <mxGeometry x="100" y="172.5" width="80" height="35" as="geometry" />
        </mxCell>
        <mxCell id="xRFAZkwnYgBkl3SBLm2K-9" value="" style="endArrow=classic;html=1;rounded=0;exitX=1;exitY=0.5;exitDx=0;exitDy=0;entryX=0;entryY=0.5;entryDx=0;entryDy=0;" parent="1" source="xRFAZkwnYgBkl3SBLm2K-5" target="xRFAZkwnYgBkl3SBLm2K-4" edge="1">
          <mxGeometry width="50" height="50" relative="1" as="geometry">
            <mxPoint x="390" y="390" as="sourcePoint" />
            <mxPoint x="440" y="340" as="targetPoint" />
            <Array as="points">
              <mxPoint x="220" y="190" />
              <mxPoint x="220" y="270" />
            </Array>
          </mxGeometry>
        </mxCell>
        <mxCell id="xRFAZkwnYgBkl3SBLm2K-10" value="набор пар для обработки" style="text;html=1;align=center;verticalAlign=middle;whiteSpace=wrap;rounded=0;" parent="1" vertex="1">
          <mxGeometry x="220" y="190" width="80" height="30" as="geometry" />
        </mxCell>
        <mxCell id="xRFAZkwnYgBkl3SBLm2K-11" value="Анализ модельного темперамента" style="text;html=1;align=center;verticalAlign=middle;whiteSpace=wrap;rounded=0;" parent="1" vertex="1">
          <mxGeometry x="240" y="250" width="100" height="40" as="geometry" />
        </mxCell>
        <mxCell id="xRFAZkwnYgBkl3SBLm2K-12" value="А3.1" style="text;html=1;align=center;verticalAlign=middle;whiteSpace=wrap;rounded=0;" parent="1" vertex="1">
          <mxGeometry x="170" y="200" width="30" height="20" as="geometry" />
        </mxCell>
        <mxCell id="xRFAZkwnYgBkl3SBLm2K-13" value="А3.2" style="text;html=1;align=center;verticalAlign=middle;whiteSpace=wrap;rounded=0;" parent="1" vertex="1">
          <mxGeometry x="330" y="280" width="30" height="20" as="geometry" />
        </mxCell>
        <mxCell id="xRFAZkwnYgBkl3SBLm2K-14" value="" style="endArrow=classic;html=1;rounded=0;exitX=1;exitY=0.5;exitDx=0;exitDy=0;entryX=0;entryY=0.5;entryDx=0;entryDy=0;" parent="1" source="xRFAZkwnYgBkl3SBLm2K-4" target="xRFAZkwnYgBkl3SBLm2K-1" edge="1">
          <mxGeometry width="50" height="50" relative="1" as="geometry">
            <mxPoint x="350" y="380" as="sourcePoint" />
            <mxPoint x="400" y="330" as="targetPoint" />
            <Array as="points">
              <mxPoint x="380" y="270" />
              <mxPoint x="380" y="370" />
            </Array>
          </mxGeometry>
        </mxCell>
        <mxCell id="xRFAZkwnYgBkl3SBLm2K-15" value="набор пар для обработки; цели, которые следует перевзвесить" style="text;html=1;align=center;verticalAlign=middle;whiteSpace=wrap;rounded=0;" parent="1" vertex="1">
          <mxGeometry x="390" y="240" width="60" height="30" as="geometry" />
        </mxCell>
        <mxCell id="xRFAZkwnYgBkl3SBLm2K-16" value="" style="endArrow=classic;html=1;rounded=0;entryX=0.661;entryY=-0.004;entryDx=0;entryDy=0;entryPerimeter=0;" parent="1" target="xRFAZkwnYgBkl3SBLm2K-1" edge="1">
          <mxGeometry width="50" height="50" relative="1" as="geometry">
            <mxPoint x="480" y="280" as="sourcePoint" />
            <mxPoint x="400" y="330" as="targetPoint" />
          </mxGeometry>
        </mxCell>
        <mxCell id="xRFAZkwnYgBkl3SBLm2K-17" value="модельный темперамент" style="text;html=1;align=center;verticalAlign=middle;whiteSpace=wrap;rounded=0;" parent="1" vertex="1">
          <mxGeometry x="490" y="280" width="60" height="30" as="geometry" />
        </mxCell>
        <mxCell id="xRFAZkwnYgBkl3SBLm2K-18" value="Алгоритм перевзвешивания" style="text;html=1;align=center;verticalAlign=middle;whiteSpace=wrap;rounded=0;" parent="1" vertex="1">
          <mxGeometry x="425" y="350" width="70" height="30" as="geometry" />
        </mxCell>
        <mxCell id="xRFAZkwnYgBkl3SBLm2K-21" value="А3.3" style="text;html=1;align=center;verticalAlign=middle;whiteSpace=wrap;rounded=0;" parent="1" vertex="1">
          <mxGeometry x="490" y="380" width="30" height="20" as="geometry" />
        </mxCell>
        <mxCell id="61eXrG69XIClksNoKm4Q-1" value="&lt;span style=&quot;color: rgb(0, 0, 0); font-family: Helvetica; font-size: 12px; font-style: normal; font-variant-ligatures: normal; font-variant-caps: normal; font-weight: 400; letter-spacing: normal; orphans: 2; text-align: center; text-indent: 0px; text-transform: none; widows: 2; word-spacing: 0px; -webkit-text-stroke-width: 0px; white-space: normal; background-color: rgb(251, 251, 251); text-decoration-thickness: initial; text-decoration-style: initial; text-decoration-color: initial; display: inline !important; float: none;&quot;&gt;Набор пар &amp;lt;коммуникативная цель; вес&amp;gt;&lt;/span&gt;" style="text;whiteSpace=wrap;html=1;" parent="1" vertex="1">
          <mxGeometry x="-100" y="140" width="170" height="40" as="geometry" />
        </mxCell>
        <mxCell id="rgJdN3K7QYtbbEbBBSm2-1" value="" style="endArrow=classic;html=1;rounded=0;" parent="1" edge="1">
          <mxGeometry width="50" height="50" relative="1" as="geometry">
            <mxPoint x="320" y="160" as="sourcePoint" />
            <mxPoint x="321" y="240" as="targetPoint" />
          </mxGeometry>
        </mxCell>
        <mxCell id="rgJdN3K7QYtbbEbBBSm2-2" value="&lt;span style=&quot;color: rgb(0, 0, 0); font-family: Helvetica; font-size: 12px; font-style: normal; font-variant-ligatures: normal; font-variant-caps: normal; font-weight: 400; letter-spacing: normal; orphans: 2; text-align: center; text-indent: 0px; text-transform: none; widows: 2; word-spacing: 0px; -webkit-text-stroke-width: 0px; white-space: normal; background-color: rgb(251, 251, 251); text-decoration-thickness: initial; text-decoration-style: initial; text-decoration-color: initial; display: inline !important; float: none;&quot;&gt;модельный темперамент&lt;/span&gt;" style="text;whiteSpace=wrap;html=1;" parent="1" vertex="1">
          <mxGeometry x="320" y="160" width="150" height="40" as="geometry" />
        </mxCell>
        <mxCell id="e1lcrWUYoqlMZSUofcan-2" value="" style="endArrow=classic;html=1;rounded=0;exitX=1;exitY=0.5;exitDx=0;exitDy=0;entryX=0.924;entryY=0.98;entryDx=0;entryDy=0;entryPerimeter=0;" parent="1" source="xRFAZkwnYgBkl3SBLm2K-1" edge="1">
          <mxGeometry width="50" height="50" relative="1" as="geometry">
            <mxPoint x="420" y="400" as="sourcePoint" />
            <mxPoint x="724.04" y="369.20000000000005" as="targetPoint" />
          </mxGeometry>
        </mxCell>
        <mxCell id="YpKLwBDtws9wNQtAvBwR-1" value="&lt;span style=&quot;color: rgb(0, 0, 0); font-family: Helvetica; font-size: 12px; font-style: normal; font-variant-ligatures: normal; font-variant-caps: normal; font-weight: 400; letter-spacing: normal; orphans: 2; text-align: center; text-indent: 0px; text-transform: none; widows: 2; word-spacing: 0px; -webkit-text-stroke-width: 0px; white-space: normal; background-color: rgb(251, 251, 251); text-decoration-thickness: initial; text-decoration-style: initial; text-decoration-color: initial; display: inline !important; float: none;&quot;&gt;КЦ, выбранная для реализации&lt;/span&gt;" style="text;whiteSpace=wrap;html=1;" vertex="1" parent="1">
          <mxGeometry x="530" y="340" width="210" height="40" as="geometry" />
        </mxCell>
        <mxCell id="YpKLwBDtws9wNQtAvBwR-2" value="" style="endArrow=classic;html=1;rounded=0;exitX=1;exitY=0.75;exitDx=0;exitDy=0;entryX=0;entryY=0.75;entryDx=0;entryDy=0;" edge="1" parent="1" source="xRFAZkwnYgBkl3SBLm2K-1" target="xRFAZkwnYgBkl3SBLm2K-5">
          <mxGeometry width="50" height="50" relative="1" as="geometry">
            <mxPoint x="330" y="320" as="sourcePoint" />
            <mxPoint x="380" y="270" as="targetPoint" />
            <Array as="points">
              <mxPoint x="540" y="385" />
              <mxPoint x="540" y="420" />
              <mxPoint x="60" y="420" />
              <mxPoint x="60" y="205" />
            </Array>
          </mxGeometry>
        </mxCell>
        <mxCell id="dfDq_Mb2yVWSM7784OYE-1" value="&lt;span style=&quot;color: rgb(0, 0, 0); font-family: Helvetica; font-size: 12px; font-style: normal; font-variant-ligatures: normal; font-variant-caps: normal; font-weight: 400; letter-spacing: normal; orphans: 2; text-align: center; text-indent: 0px; text-transform: none; widows: 2; word-spacing: 0px; -webkit-text-stroke-width: 0px; white-space: normal; background-color: rgb(251, 251, 251); text-decoration-thickness: initial; text-decoration-style: initial; text-decoration-color: initial; display: inline !important; float: none;&quot;&gt;Перевзвешенные коммуникативные цели&lt;/span&gt;" style="text;whiteSpace=wrap;html=1;" vertex="1" parent="1">
          <mxGeometry x="100" y="390" width="270" height="40" as="geometry" />
        </mxCell>
      </root>
    </mxGraphModel>
  </diagram>
  <diagram id="hyKjtnw7EzXkirC7aZXP" name="Страница — 4">
    <mxGraphModel dx="1829" dy="575" grid="1" gridSize="10" guides="1" tooltips="1" connect="1" arrows="1" fold="1" page="1" pageScale="1" pageWidth="827" pageHeight="1169" math="0" shadow="0">
      <root>
        <mxCell id="0" />
        <mxCell id="1" parent="0" />
        <mxCell id="i6va5Rbhn_ouPxSjdu1a-1" value="" style="rounded=0;whiteSpace=wrap;html=1;" vertex="1" parent="1">
          <mxGeometry x="400" y="340" width="120" height="60" as="geometry" />
        </mxCell>
        <mxCell id="i6va5Rbhn_ouPxSjdu1a-2" value="" style="rounded=0;whiteSpace=wrap;html=1;" vertex="1" parent="1">
          <mxGeometry x="706" y="540" width="120" height="60" as="geometry" />
        </mxCell>
        <mxCell id="i6va5Rbhn_ouPxSjdu1a-3" value="" style="rounded=0;whiteSpace=wrap;html=1;" vertex="1" parent="1">
          <mxGeometry x="560" y="440" width="120" height="60" as="geometry" />
        </mxCell>
        <mxCell id="i6va5Rbhn_ouPxSjdu1a-4" value="" style="rounded=0;whiteSpace=wrap;html=1;" vertex="1" parent="1">
          <mxGeometry x="246" y="240" width="120" height="60" as="geometry" />
        </mxCell>
        <mxCell id="i6va5Rbhn_ouPxSjdu1a-5" value="" style="rounded=0;whiteSpace=wrap;html=1;" vertex="1" parent="1">
          <mxGeometry x="96" y="160" width="120" height="60" as="geometry" />
        </mxCell>
        <mxCell id="i6va5Rbhn_ouPxSjdu1a-6" value="" style="endArrow=classic;html=1;rounded=0;entryX=0;entryY=0.5;entryDx=0;entryDy=0;" edge="1" parent="1" target="i6va5Rbhn_ouPxSjdu1a-5">
          <mxGeometry width="50" height="50" relative="1" as="geometry">
            <mxPoint x="6" y="190" as="sourcePoint" />
            <mxPoint x="456" y="340" as="targetPoint" />
          </mxGeometry>
        </mxCell>
        <mxCell id="i6va5Rbhn_ouPxSjdu1a-7" value="Текст&lt;div&gt;(предложение)&lt;/div&gt;" style="text;html=1;align=center;verticalAlign=middle;whiteSpace=wrap;rounded=0;" vertex="1" parent="1">
          <mxGeometry x="-17" y="139" width="130" height="60" as="geometry" />
        </mxCell>
        <mxCell id="i6va5Rbhn_ouPxSjdu1a-8" value="Синтактико-семантический анализатор" style="text;html=1;align=center;verticalAlign=middle;whiteSpace=wrap;rounded=0;" vertex="1" parent="1">
          <mxGeometry x="116" y="172.5" width="80" height="35" as="geometry" />
        </mxCell>
        <mxCell id="i6va5Rbhn_ouPxSjdu1a-9" value="" style="endArrow=classic;html=1;rounded=0;exitX=1;exitY=0.5;exitDx=0;exitDy=0;entryX=0;entryY=0.5;entryDx=0;entryDy=0;" edge="1" parent="1" source="i6va5Rbhn_ouPxSjdu1a-5" target="i6va5Rbhn_ouPxSjdu1a-4">
          <mxGeometry width="50" height="50" relative="1" as="geometry">
            <mxPoint x="390" y="390" as="sourcePoint" />
            <mxPoint x="440" y="340" as="targetPoint" />
            <Array as="points">
              <mxPoint x="230" y="190" />
              <mxPoint x="230" y="270" />
            </Array>
          </mxGeometry>
        </mxCell>
        <mxCell id="i6va5Rbhn_ouPxSjdu1a-10" value="Внутреннее представление смысла текста" style="text;html=1;align=center;verticalAlign=middle;whiteSpace=wrap;rounded=0;" vertex="1" parent="1">
          <mxGeometry x="238" y="189" width="80" height="30" as="geometry" />
        </mxCell>
        <mxCell id="i6va5Rbhn_ouPxSjdu1a-11" value="Формирование коммуникативных целей ответа" style="text;html=1;align=center;verticalAlign=middle;whiteSpace=wrap;rounded=0;" vertex="1" parent="1">
          <mxGeometry x="256" y="250" width="100" height="40" as="geometry" />
        </mxCell>
        <mxCell id="i6va5Rbhn_ouPxSjdu1a-12" value="А1" style="text;html=1;align=center;verticalAlign=middle;whiteSpace=wrap;rounded=0;" vertex="1" parent="1">
          <mxGeometry x="186" y="200" width="30" height="20" as="geometry" />
        </mxCell>
        <mxCell id="i6va5Rbhn_ouPxSjdu1a-13" value="А2" style="text;html=1;align=center;verticalAlign=middle;whiteSpace=wrap;rounded=0;" vertex="1" parent="1">
          <mxGeometry x="336" y="280" width="30" height="20" as="geometry" />
        </mxCell>
        <mxCell id="i6va5Rbhn_ouPxSjdu1a-14" value="" style="endArrow=classic;html=1;rounded=0;exitX=1;exitY=0.5;exitDx=0;exitDy=0;" edge="1" parent="1" source="i6va5Rbhn_ouPxSjdu1a-4">
          <mxGeometry width="50" height="50" relative="1" as="geometry">
            <mxPoint x="350" y="380" as="sourcePoint" />
            <mxPoint x="400" y="360" as="targetPoint" />
            <Array as="points">
              <mxPoint x="380" y="270" />
              <mxPoint x="380" y="360" />
            </Array>
          </mxGeometry>
        </mxCell>
        <mxCell id="i6va5Rbhn_ouPxSjdu1a-15" value="Н&lt;span style=&quot;background-color: initial;&quot;&gt;абор взвешенных коммуникативных целей – пар&lt;/span&gt;&lt;div&gt;&lt;span style=&quot;background-color: initial;&quot;&gt;&amp;lt;коммуникативная цель;&amp;nbsp;&lt;/span&gt;&lt;span style=&quot;background-color: initial;&quot;&gt;вес&amp;gt;&lt;/span&gt;&lt;/div&gt;" style="text;html=1;align=center;verticalAlign=middle;whiteSpace=wrap;rounded=0;" vertex="1" parent="1">
          <mxGeometry x="409" y="248" width="60" height="30" as="geometry" />
        </mxCell>
        <mxCell id="i6va5Rbhn_ouPxSjdu1a-18" value="Фильтр коммуникативных целей" style="text;html=1;align=center;verticalAlign=middle;whiteSpace=wrap;rounded=0;" vertex="1" parent="1">
          <mxGeometry x="430" y="355" width="60" height="30" as="geometry" />
        </mxCell>
        <mxCell id="i6va5Rbhn_ouPxSjdu1a-19" value="Перевзвешенные коммуникативные цели" style="text;html=1;align=center;verticalAlign=middle;whiteSpace=wrap;rounded=0;" vertex="1" parent="1">
          <mxGeometry x="635" y="320" width="60" height="30" as="geometry" />
        </mxCell>
        <mxCell id="i6va5Rbhn_ouPxSjdu1a-20" value="" style="endArrow=classic;html=1;rounded=0;exitX=1;exitY=0;exitDx=0;exitDy=0;entryX=0;entryY=0.667;entryDx=0;entryDy=0;entryPerimeter=0;" edge="1" parent="1" source="i6va5Rbhn_ouPxSjdu1a-21" target="i6va5Rbhn_ouPxSjdu1a-1">
          <mxGeometry width="50" height="50" relative="1" as="geometry">
            <mxPoint x="350" y="380" as="sourcePoint" />
            <mxPoint x="400" y="330" as="targetPoint" />
            <Array as="points">
              <mxPoint x="540" y="380" />
              <mxPoint x="540" y="430" />
              <mxPoint x="380" y="430" />
              <mxPoint x="380" y="380" />
            </Array>
          </mxGeometry>
        </mxCell>
        <mxCell id="i6va5Rbhn_ouPxSjdu1a-21" value="А3" style="text;html=1;align=center;verticalAlign=middle;whiteSpace=wrap;rounded=0;" vertex="1" parent="1">
          <mxGeometry x="490" y="380" width="30" height="20" as="geometry" />
        </mxCell>
        <mxCell id="i6va5Rbhn_ouPxSjdu1a-22" value="Выбор средств реализации данной КЦ" style="text;html=1;align=center;verticalAlign=middle;whiteSpace=wrap;rounded=0;" vertex="1" parent="1">
          <mxGeometry x="580" y="450" width="80" height="40" as="geometry" />
        </mxCell>
        <mxCell id="i6va5Rbhn_ouPxSjdu1a-23" value="А4" style="text;html=1;align=center;verticalAlign=middle;whiteSpace=wrap;rounded=0;" vertex="1" parent="1">
          <mxGeometry x="650" y="480" width="30" height="20" as="geometry" />
        </mxCell>
        <mxCell id="i6va5Rbhn_ouPxSjdu1a-24" value="" style="endArrow=classic;html=1;rounded=0;exitX=1;exitY=0.5;exitDx=0;exitDy=0;entryX=0;entryY=0.5;entryDx=0;entryDy=0;" edge="1" parent="1" source="i6va5Rbhn_ouPxSjdu1a-3" target="i6va5Rbhn_ouPxSjdu1a-2">
          <mxGeometry width="50" height="50" relative="1" as="geometry">
            <mxPoint x="710" y="500" as="sourcePoint" />
            <mxPoint x="760" y="450" as="targetPoint" />
            <Array as="points">
              <mxPoint x="690" y="470" />
              <mxPoint x="690" y="570" />
            </Array>
          </mxGeometry>
        </mxCell>
        <mxCell id="i6va5Rbhn_ouPxSjdu1a-25" value="Реакция в формате BML" style="text;html=1;align=center;verticalAlign=middle;whiteSpace=wrap;rounded=0;" vertex="1" parent="1">
          <mxGeometry x="690" y="437" width="80" height="30" as="geometry" />
        </mxCell>
        <mxCell id="i6va5Rbhn_ouPxSjdu1a-26" value="Воспроизведение&lt;div&gt;реакции&lt;/div&gt;" style="text;html=1;align=center;verticalAlign=middle;whiteSpace=wrap;rounded=0;" vertex="1" parent="1">
          <mxGeometry x="726" y="545" width="80" height="40" as="geometry" />
        </mxCell>
        <mxCell id="i6va5Rbhn_ouPxSjdu1a-27" value="А5" style="text;html=1;align=center;verticalAlign=middle;whiteSpace=wrap;rounded=0;" vertex="1" parent="1">
          <mxGeometry x="796" y="580" width="30" height="20" as="geometry" />
        </mxCell>
        <mxCell id="i6va5Rbhn_ouPxSjdu1a-28" value="" style="endArrow=classic;html=1;rounded=0;exitX=1;exitY=0.5;exitDx=0;exitDy=0;" edge="1" parent="1" source="i6va5Rbhn_ouPxSjdu1a-2">
          <mxGeometry width="50" height="50" relative="1" as="geometry">
            <mxPoint x="736" y="550" as="sourcePoint" />
            <mxPoint x="896" y="570" as="targetPoint" />
          </mxGeometry>
        </mxCell>
        <mxCell id="i6va5Rbhn_ouPxSjdu1a-29" value="Воспроизве-денная&lt;div&gt;реакция&lt;/div&gt;" style="text;html=1;align=center;verticalAlign=middle;whiteSpace=wrap;rounded=0;" vertex="1" parent="1">
          <mxGeometry x="829" y="527" width="60" height="30" as="geometry" />
        </mxCell>
        <mxCell id="i6va5Rbhn_ouPxSjdu1a-31" value="" style="edgeStyle=isometricEdgeStyle;endArrow=none;html=1;rounded=0;strokeWidth=1;" edge="1" parent="1">
          <mxGeometry width="50" height="100" relative="1" as="geometry">
            <mxPoint x="540" y="392" as="sourcePoint" />
            <mxPoint x="610" y="340" as="targetPoint" />
          </mxGeometry>
        </mxCell>
        <mxCell id="i6va5Rbhn_ouPxSjdu1a-32" value="" style="endArrow=classic;html=1;rounded=0;exitX=0.999;exitY=0.374;exitDx=0;exitDy=0;entryX=-0.001;entryY=0.34;entryDx=0;entryDy=0;exitPerimeter=0;entryPerimeter=0;" edge="1" parent="1" source="i6va5Rbhn_ouPxSjdu1a-1" target="i6va5Rbhn_ouPxSjdu1a-3">
          <mxGeometry width="50" height="50" relative="1" as="geometry">
            <mxPoint x="525" y="354" as="sourcePoint" />
            <mxPoint x="565" y="454" as="targetPoint" />
            <Array as="points">
              <mxPoint x="545" y="362" />
              <mxPoint x="545" y="460" />
            </Array>
          </mxGeometry>
        </mxCell>
        <mxCell id="i6va5Rbhn_ouPxSjdu1a-33" value="КЦ, выбранная для реализации" style="text;html=1;align=center;verticalAlign=middle;whiteSpace=wrap;rounded=0;" vertex="1" parent="1">
          <mxGeometry x="545" y="398" width="105" height="30" as="geometry" />
        </mxCell>
        <mxCell id="i6va5Rbhn_ouPxSjdu1a-34" value="" style="endArrow=classic;html=1;rounded=0;entryX=0;entryY=0.5;entryDx=0;entryDy=0;" edge="1" parent="1">
          <mxGeometry width="50" height="50" relative="1" as="geometry">
            <mxPoint x="440" y="484" as="sourcePoint" />
            <mxPoint x="560" y="484" as="targetPoint" />
          </mxGeometry>
        </mxCell>
        <mxCell id="i6va5Rbhn_ouPxSjdu1a-35" value="Средства реализации КЦ" style="text;html=1;align=center;verticalAlign=middle;whiteSpace=wrap;rounded=0;" vertex="1" parent="1">
          <mxGeometry x="430" y="434" width="120" height="60" as="geometry" />
        </mxCell>
        <mxCell id="i6va5Rbhn_ouPxSjdu1a-36" value="" style="endArrow=classic;html=1;rounded=0;entryX=0.51;entryY=1.011;entryDx=0;entryDy=0;entryPerimeter=0;" edge="1" parent="1" target="i6va5Rbhn_ouPxSjdu1a-2">
          <mxGeometry width="50" height="50" relative="1" as="geometry">
            <mxPoint x="767" y="630" as="sourcePoint" />
            <mxPoint x="770" y="600" as="targetPoint" />
          </mxGeometry>
        </mxCell>
        <mxCell id="i6va5Rbhn_ouPxSjdu1a-37" value="Исполнительные органы робота" style="text;html=1;align=center;verticalAlign=middle;whiteSpace=wrap;rounded=0;" vertex="1" parent="1">
          <mxGeometry x="660" y="600" width="100" height="30" as="geometry" />
        </mxCell>
      </root>
    </mxGraphModel>
  </diagram>
</mxfile>
